<?xml version="1.0" encoding="UTF-8" standalone="no"?>
<!-- Created with Inkscape (http://www.inkscape.org/) -->

<svg
   xmlns:dc="http://purl.org/dc/elements/1.1/"
   xmlns:cc="http://creativecommons.org/ns#"
   xmlns:rdf="http://www.w3.org/1999/02/22-rdf-syntax-ns#"
   xmlns:svg="http://www.w3.org/2000/svg"
   xmlns="http://www.w3.org/2000/svg"
   xmlns:sodipodi="http://sodipodi.sourceforge.net/DTD/sodipodi-0.dtd"
   xmlns:inkscape="http://www.inkscape.org/namespaces/inkscape"
   width="54.243225mm"
   height="54.243675mm"
   viewBox="0 0 54.243225 54.243675"
   version="1.1"
   id="svg8"
   inkscape:version="0.92.3 (2405546, 2018-03-11)"
   sodipodi:docname="Karlstads universitet Logo.svg">
  <defs
     id="defs2" />
  <sodipodi:namedview
     id="base"
     pagecolor="#ffffff"
     bordercolor="#666666"
     borderopacity="1.0"
     inkscape:pageopacity="0.0"
     inkscape:pageshadow="2"
     inkscape:zoom="1.979899"
     inkscape:cx="-7.8451598"
     inkscape:cy="104.28192"
     inkscape:document-units="mm"
     inkscape:current-layer="layer1"
     showgrid="false"
     fit-margin-top="0"
     fit-margin-left="0"
     fit-margin-right="0"
     fit-margin-bottom="0"
     inkscape:window-width="1920"
     inkscape:window-height="1016"
     inkscape:window-x="0"
     inkscape:window-y="27"
     inkscape:window-maximized="1" />
  <metadata
     id="metadata5">
    <rdf:RDF>
      <cc:Work
         rdf:about="">
        <dc:format>image/svg+xml</dc:format>
        <dc:type
           rdf:resource="http://purl.org/dc/dcmitype/StillImage" />
        <dc:title></dc:title>
      </cc:Work>
    </rdf:RDF>
  </metadata>
  <g
     inkscape:label="Layer 1"
     inkscape:groupmode="layer"
     id="layer1"
     transform="translate(-74.931961,-145.14602)">
    <g
       transform="matrix(0.35277777,0,0,-0.35277777,74.931928,199.38955)"
       inkscape:label="ink_ext_XXXXXX"
       id="g842">
      <g
         transform="scale(0.1)"
         id="g844">
        <path
           inkscape:connector-curvature="0"
           id="path846"
           style="fill:#ffffff;fill-opacity:1;fill-rule:nonzero;stroke:none"
           d="M 1362.02,285.352 C 1165.72,44.2695 864.68,-39.9102 588.848,24.1016 316.957,86 85.3867,315.57 24.5703,591.84 c -73.6367,317.699 47.7969,633.45 324.8167,816.73 245.98,165.95 585.476,165.86 828.063,9.06 112.35,-70.99 216.93,-182.59 280.68,-318.06 123.34,-254.675 100.26,-578.441 -96.11,-814.218" />
        <path
           inkscape:connector-curvature="0"
           id="path848"
           style="fill:#231f20;fill-opacity:1;fill-rule:nonzero;stroke:none"
           d="m 92.4531,891.102 6.4375,-1.446 c 1.2734,0 2.3864,0.86 2.6644,2.149 l 0.961,4.035 c 0.406,1.773 2.054,3.082 3.906,3.082 l 0.867,-0.106 h 0.07 l 58.106,-14.003 c 2.148,-0.508 3.496,-2.715 2.996,-4.891 l -0.816,-3.508 c -0.348,-1.484 0.578,-2.961 2.078,-3.301 l 5.785,-1.347 0.629,-0.071 c 1.312,0 2.426,0.871 2.707,2.121 l 14.222,61.211 c 0.372,1.504 -0.55,3.094 -2.035,3.555 l -20.679,6.055 c -1.188,0 -2.223,-0.821 -2.481,-1.992 l -1.812,-7.793 c -0.352,-1.504 0.55,-3.184 2.015,-3.711 l 7.617,-2.688 c 2.079,-0.723 3.352,-3.055 2.848,-5.223 l -4.379,-18.789 c -0.41,-1.855 -2.015,-3.144 -3.926,-3.144 l -0.863,0.105 h -0.074 l -58.086,14.016 c -2.164,0.508 -3.516,2.715 -3.02,4.883 l 0.817,3.476 c 0.351,1.493 -0.57,2.989 -2.07,3.321 l -6.418,1.406 c -1.3169,0 -2.4223,-0.859 -2.7075,-2.129 l -7.418,-31.992 c -0.164,-0.703 -0.0507,-1.438 0.336,-2.063 0.3906,-0.625 0.9961,-1.054 1.7226,-1.218 z M 1455.92,790.516 l -19.26,1.367 c -1.45,0 -2.58,-1.094 -2.62,-2.539 l -0.27,-7.168 c -0.04,-1.524 1.21,-2.891 2.73,-3.008 l 6.29,-0.547 c 2.21,-0.195 3.95,-2.141 3.87,-4.324 l -0.39,-11.731 c -0.04,-2.187 -1.8,-3.918 -4.14,-3.918 l -59.71,2.383 c -1.07,0.032 -2.07,0.481 -2.83,1.282 -0.72,0.8 -1.11,1.835 -1.07,2.91 l 0.13,3.632 c 0.04,1.524 -1.19,2.801 -2.71,2.872 l -6.04,0.175 c -1.5,0 -2.71,-1.172 -2.77,-2.687 l -1.04,-32.84 c -0.02,-0.742 0.24,-1.437 0.75,-1.973 0.5,-0.547 1.19,-0.859 1.91,-0.879 l 6.07,-0.195 c 1.49,0 2.7,1.172 2.76,2.695 l 0.13,4.063 c 0.04,2.137 1.86,3.879 4.17,3.879 l 59.68,-2.356 c 1.1,-0.039 2.09,-0.507 2.83,-1.289 0.75,-0.8 1.12,-1.836 1.1,-2.89 l -0.35,-11.602 c -0.1,-2.187 -1.94,-4.043 -4.14,-4.101 l -6.35,-0.098 c -1.54,-0.039 -2.81,-1.328 -2.87,-2.871 l -0.24,-7.121 c -0.02,-0.731 0.26,-1.422 0.76,-1.942 0.49,-0.507 1.16,-0.793 1.86,-0.793 h 0.04 l 19.12,0.129 c 1.56,0.02 2.83,1.278 2.87,2.813 l 2.4,75.683 c 0.04,1.551 -1.15,2.871 -2.67,2.989 z M 148.621,1004.99 c 3.234,-1.39 6.375,-2.09 9.293,-2.09 10.16,0 17.086,8.24 23.309,16.7 l 1.808,2.46 c 5.528,7.58 10.754,14.73 17.477,14.73 1.406,0 2.847,-0.33 4.289,-0.93 4.426,-1.91 7.016,-5.21 7.68,-9.85 0.554,-3.84 -0.258,-8.48 -2.364,-13.38 -1.922,-4.54 -7.004,-11.31 -7.203,-11.6 -0.922,-1.276 -2.621,-2.089 -4.324,-2.089 -0.574,0 -1.125,0.102 -1.629,0.286 l -5.238,1.923 c -0.317,0.11 -0.649,0.17 -0.981,0.17 -1.183,0 -2.293,-0.73 -2.75,-1.8 l -3.011,-7.032 c -0.59,-1.406 0.066,-3.039 1.472,-3.613 l 15.446,-6.602 c 0.418,-0.175 0.882,-0.253 1.386,-0.253 1.215,0 2.457,0.527 3.121,1.375 0.106,0.148 10.602,13.507 14.289,22.155 14.266,33.44 -5.054,44.77 -11.336,47.43 -3.492,1.49 -6.855,2.24 -9.992,2.24 -10.586,0 -17.84,-8.54 -23.828,-16.58 l -2.051,-2.78 c -5.394,-7.38 -10.492,-14.32 -16.918,-14.32 -1.312,0 -2.66,0.27 -4.007,0.85 -2.934,1.25 -4.993,3.3 -6.114,6.07 -1.625,4.06 -1.129,9.38 1.442,15.43 1.472,3.44 5.004,8.24 5.148,8.42 0.906,1.27 2.625,2.09 4.363,2.09 0.551,0 1.086,-0.06 1.586,-0.24 l 4.063,-1.46 c 0.316,-0.11 0.629,-0.16 0.961,-0.16 1.203,0 2.308,0.72 2.754,1.8 l 3.008,7.04 c 0.296,0.67 0.296,1.4 0.039,2.09 -0.278,0.71 -0.809,1.23 -1.496,1.54 l -13.668,5.83 c -0.407,0.16 -0.872,0.26 -1.368,0.26 -1.238,0 -2.457,-0.56 -3.14,-1.4 -0.114,-0.14 -10.473,-13.17 -13.223,-19.67 -10.66,-24.98 -0.941,-39.64 11.707,-45.04 z M 91.7813,786.676 c 0.0546,1.926 0.7421,4.953 1.5195,6.652 0.0195,0.098 2.7773,9.395 13.1212,9.395 8.691,0 11.355,-5.469 12.801,-10.821 1.242,-4.531 1.132,-8.183 1.043,-10.683 -0.078,-2.129 -1.875,-3.887 -4.157,-3.887 -0.015,0 -0.015,0 -0.035,0 l -20.5662,0.898 c -2.2226,0.079 -3.9687,1.961 -3.8906,4.18 z m -1.2188,-33.485 0.125,4.102 c 0.0742,2.168 1.8164,3.867 4.1719,3.867 0.0117,0 0.0117,0 0.0351,0 l 59.6835,-2.617 c 2.223,-0.09 3.969,-1.992 3.875,-4.219 l -0.152,-3.613 c -0.02,-1.555 1.152,-2.793 2.691,-2.852 l 5.946,-0.234 h 0.089 c 1.504,0 2.723,1.16 2.801,2.637 l 1.203,32.824 c 0.02,0.73 -0.242,1.453 -0.738,1.98 -0.523,0.555 -1.207,0.86 -1.93,0.899 l -6.058,0.215 c -1.5,0 -2.703,-1.192 -2.778,-2.668 l -0.148,-4.051 c -0.078,-2.18 -1.836,-3.887 -4.129,-3.887 -0.023,0 -0.023,0 -0.047,0 l -19.558,0.86 c -1.43,0.039 -2.692,0.496 -3.395,1.269 -0.391,0.391 -0.574,0.879 -0.555,1.367 0.039,1.016 0.332,3.379 0.649,5.274 0.039,0.222 1.168,5.722 18.73,13.836 19.055,8.742 20.813,18.957 20.828,19.054 0.282,1.836 0.559,4.856 0.633,6.707 l 0.094,2.579 c 0.051,1.535 -1.129,2.824 -2.652,2.902 l -6.817,0.223 c -1.449,0 -2.113,-0.36 -2.187,-0.418 0.113,-0.821 -0.243,-4.004 -0.743,-5.469 -0.351,-1.074 -1.906,-2.102 -6.058,-4.844 -2.484,-1.621 -5.82,-3.828 -10.156,-6.894 -6.223,-4.407 -11.375,-9.61 -14.508,-14.668 l -1.149,-1.387 -0.238,1.738 c -0.91,6.465 -3.242,11.875 -6.789,15.684 -4.164,4.453 -11.352,6.504 -16.269,6.504 -4.442,0 -9.5552,-0.801 -16.6724,-6.496 -6.5742,-5.262 -7.2422,-17.286 -7.2617,-17.508 -0.3555,-1.778 -0.7109,-4.785 -0.7812,-6.629 l -1.3008,-35.617 c -0.0156,-0.762 0.2461,-1.465 0.7617,-2.024 0.5039,-0.535 1.1719,-0.828 1.8906,-0.867 l 6.0586,-0.215 c 1.5039,0 2.7266,1.18 2.8047,2.656 z M 198.008,1119.44 c 0.465,-0.35 1.015,-0.53 1.586,-0.53 0.851,0 1.66,0.43 2.16,1.13 l 4.113,5.84 c 0.887,1.24 0.61,3.07 -0.594,4.02 l -4.96,3.89 c -1.766,1.36 -2.161,3.97 -0.848,5.76 l 6.75,9.6 c 0.738,1.07 1.953,1.72 3.262,1.72 0.851,0 1.668,-0.26 2.343,-0.76 l 48.614,-34.73 c 0.882,-0.62 1.457,-1.54 1.64,-2.62 0.184,-1.06 -0.054,-2.13 -0.683,-3.03 l -2.098,-2.98 c -0.863,-1.23 -0.555,-2.96 0.68,-3.87 l 4.886,-3.42 c 0.461,-0.32 1.016,-0.51 1.586,-0.51 0.91,0 1.754,0.45 2.27,1.21 l 18.902,26.86 c 0.867,1.28 0.571,2.95 -0.683,3.86 l -4.887,3.43 c -0.461,0.33 -1.016,0.49 -1.563,0.49 -0.91,0 -1.754,-0.44 -2.293,-1.16 l -2.339,-3.34 c -0.739,-1.07 -1.973,-1.71 -3.301,-1.71 -0.832,0 -1.637,0.25 -2.324,0.75 l -48.618,34.73 c -1.804,1.29 -2.222,3.82 -0.957,5.64 l 6.676,9.5 c 0.781,1.11 2.067,1.77 3.469,1.77 0.797,0 1.57,-0.2 2.215,-0.62 l 5.367,-3.36 c 0.445,-0.29 0.976,-0.45 1.527,-0.45 0.985,0 1.879,0.47 2.438,1.24 l 4.109,5.85 c 0.406,0.59 0.574,1.31 0.426,2.03 -0.133,0.71 -0.531,1.31 -1.149,1.69 l -16.058,10.37 c -0.461,0.29 -0.988,0.46 -1.547,0.46 -0.957,0 -1.859,-0.46 -2.398,-1.24 l -43.524,-61.94 c -0.863,-1.26 -0.586,-3.05 0.61,-3.97 z M 1395.53,532.121 c -0.39,0.188 -0.76,0.27 -1.17,0.27 -1.02,0 -1.98,-0.61 -2.41,-1.582 l -2.87,-6.539 c -0.62,-1.391 -0.02,-3.098 1.35,-3.809 l 5.64,-2.84 c 1.98,-0.992 2.88,-3.43 2,-5.48 l -4.77,-10.75 c -0.66,-1.461 -2.09,-2.391 -3.71,-2.391 -0.55,0 -1.09,0.109 -1.62,0.34 l -54.45,24.531 c -2.04,0.938 -2.95,3.348 -2.06,5.391 l 1.49,3.328 c 0.6,1.39 -0.06,3.039 -1.47,3.629 l -5.44,2.422 c -0.36,0.156 -0.73,0.234 -1.12,0.234 -1.09,0 -2.07,-0.637 -2.5,-1.625 l -13.28,-30.09 c -0.29,-0.648 -0.31,-1.39 -0.04,-2.09 0.28,-0.711 0.8,-1.25 1.47,-1.55 l 5.45,-2.411 c 0.35,-0.148 0.72,-0.218 1.09,-0.218 1.11,0 2.09,0.66 2.54,1.66 l 1.66,3.711 c 0.62,1.437 2.09,2.398 3.69,2.398 0.57,0 1.11,-0.14 1.66,-0.351 l 54.41,-24.559 c 2.06,-0.898 2.97,-3.289 2.09,-5.34 l -4.68,-10.609 c -0.69,-1.539 -2.21,-2.531 -3.89,-2.531 -0.53,0 -1.04,0.101 -1.5,0.281 l -5.9,2.25 c -0.31,0.109 -0.65,0.179 -1.02,0.179 -1.17,0 -2.24,-0.699 -2.73,-1.742 l -2.87,-6.527 c -0.3,-0.68 -0.32,-1.402 -0.04,-2.082 0.27,-0.649 0.8,-1.18 1.48,-1.43 l 17.74,-7.051 c 0.35,-0.128 0.68,-0.179 1.03,-0.179 1.17,0 2.27,0.691 2.72,1.711 l 30.58,69.281 c 0.63,1.41 0,3.09 -1.38,3.75 z M 1285.9,743.387 c -32.36,1.23 -49.51,13.554 -72.17,40.84 -5.78,6.972 -27.01,34.031 -43.36,46.601 -49.78,38.281 -99.92,15.344 -107.73,11.27 -1.27,5.39 19.78,59.98 70.19,62.117 7.66,0.324 15.94,0.07 24.67,0.363 9.67,0.32 20.7,1.289 32.44,4.363 23.45,6.164 47.02,20.282 69.46,49.094 25.72,-67.129 37.06,-141.078 33.53,-214.918 z m -74.76,-259.696 -7.19,4.539 c -27.41,17.27 -40.06,31.731 -46.02,66.661 -1.52,8.925 -10.41,45.449 -12.97,54.89 -20.88,76.594 -76.33,75.235 -85.23,75.567 1.4,5.129 47.36,42.062 92.05,18.703 6.79,-3.535 13.85,-7.891 21.58,-12.024 8.52,-4.539 18.55,-9.246 30.27,-12.449 23.15,-6.301 50.33,-5.918 83.72,7.41 -10.89,-71.8 -36.1,-141.758 -76.21,-203.297 z M 1009.1,301.23 l -3.71,7.02 c -15.097,28.672 -14.745,47.488 -2.44,80.73 3.14,8.508 16.07,50.75 17.69,60.379 12.58,74.18 -27.964,93.676 -41.402,101.606 3.887,3.758 53.692,10.808 80.742,-31.774 4.1,-6.461 8.03,-13.75 12.66,-21.191 5.11,-8.199 11.46,-17.281 20,-25.922 17.03,-17.168 48.46,-28.637 85.09,-33.566 C 1129.49,379.07 1071.97,333.371 1009.1,301.23 Z m -265.909,-56.492 0.266,6.91 c 1.246,32.372 7.449,50.543 34.711,73.192 6.984,5.781 34.664,30.832 41.07,38.672 13.028,15.929 40.157,39.929 32.617,80.808 -1.269,6.871 -5.644,23.008 -9.882,30.95 5.234,1.269 60.175,-20.129 62.304,-70.54 0.332,-7.64 0.078,-15.921 0.371,-24.679 0.313,-9.653 1.27,-20.711 4.375,-32.442 6.133,-23.328 20.188,-46.828 48.743,-69.187 C 889.473,252.441 816.492,241.25 743.191,244.738 Z m -56.445,873.332 c -3.141,-22.63 2.594,-42.51 8.824,-55.67 -5.375,-1.25 -60.082,19.95 -62.207,70.34 -0.336,7.68 -0.07,15.95 -0.371,24.71 -0.32,9.65 -1.262,20.68 -4.359,32.42 -6.168,23.46 -20.313,47.08 -49.176,69.54 68.023,25.85 142.012,36.84 215,33.45 l -0.262,-7.02 c -1.242,-32.39 -8.468,-49.54 -35.738,-72.16 -6.977,-5.78 -64.996,-47.27 -71.711,-95.61 z m 17.402,-732.3 c -3.558,-6.79 -7.91,-13.84 -12.019,-21.551 -4.555,-8.539 -9.258,-18.571 -12.465,-30.289 -6.301,-23.121 -5.926,-50.289 7.367,-83.649 -14.629,2.199 -29.222,4.91 -43.746,8.27 -59.48,13.437 -116.586,39.429 -168.019,74.648 l 1.863,2.961 c 17.281,27.418 50.043,33.442 84.973,39.379 8.949,1.52 17.902,3.02 26.738,4.922 9.59,2.051 18.937,4.859 28.156,8.059 74.762,25.949 68.059,80.25 68.453,89.05 2.688,-0.711 42.047,-47.07 18.699,-91.8 z M 438.746,360.469 C 382.273,406.57 334.668,464.219 301.238,528.422 l 7.106,3.758 c 28.664,15.093 47.496,18.824 80.738,6.519 8.484,-3.148 16.996,-6.347 25.59,-9.121 9.336,-3.008 54.129,-21.637 102.711,-1.629 21.379,8.801 30.816,22.625 34.078,31.016 3.644,-3.762 12.449,-62.496 -30.145,-89.555 -6.461,-4.109 -13.742,-8.031 -21.183,-12.64 -8.203,-5.122 -17.301,-11.469 -25.922,-20.02 -17.047,-16.891 -30.32,-40.641 -35.465,-76.281 z M 278.262,579.496 c -8.082,21.117 -14.676,42.727 -19.524,64.719 -11.886,50.25 -16.394,100.711 -14.097,150.168 l 7.101,-0.274 c 32.399,-1.23 47.496,-13.554 70.137,-40.839 5.773,-6.954 11.539,-13.973 17.613,-20.684 6.293,-6.953 13.219,-13.945 21.059,-20.363 15.926,-13.035 37.984,-26.082 63.25,-28.828 18.469,-1.981 43.715,7.98 51.691,12.246 l 0.863,-3.582 c 0.895,-4.121 -21.128,-56.641 -71.527,-58.789 -7.644,-0.325 -15.933,-0.059 -24.676,-0.352 -9.668,-0.332 -20.711,-1.289 -32.461,-4.375 -23.414,-6.152 -46.992,-20.258 -69.429,-49.047 z m 55.168,483.094 5.535,-3.48 c 27.414,-17.26 34.805,-41.56 40.762,-76.516 1.511,-8.934 3.007,-17.879 4.906,-26.727 2.078,-9.59 4.605,-19.023 8.058,-28.144 7.305,-19.258 23.477,-45.821 42.754,-59.766 14.227,-10.312 33.664,-15.519 42.653,-15.84 -1.453,-5.097 -47.516,-42.031 -92.235,-18.672 -6.785,3.535 -13.832,7.891 -21.566,12.02 -8.52,4.543 -18.543,9.23 -30.289,12.453 -23.149,6.305 -50.352,5.926 -83.789,-7.453 11.734,75.965 39.992,148.254 83.211,212.125 z m 148.621,146.44 c 14.89,10.11 30.387,19.27 46.34,27.55 l 3.867,-7.33 c 15.113,-28.66 14.746,-47.52 2.437,-80.74 -3.136,-8.5 -6.328,-17.01 -9.105,-25.61 -3.024,-9.33 -5.535,-18.77 -7.098,-28.42 -3.316,-20.3 -2.32,-42.15 7.02,-65.8 8.551,-21.65 25.621,-37.649 33.289,-42.395 -3.836,-3.711 -62.246,-12.625 -89.297,29.975 -4.098,6.46 -8.02,13.77 -12.656,21.18 -5.102,8.21 -11.45,17.29 -19.996,25.93 -16.946,17.1 -40.782,30.4 -76.598,35.51 33.789,41.69 74.555,78.93 121.797,110.15 z m 351.445,-57.3 c 3.555,6.77 7.93,13.82 12.031,21.56 4.551,8.51 9.258,18.55 12.442,30.28 6.34,23.14 5.937,50.37 -7.422,83.79 70.539,-10.59 138.371,-34.87 196.873,-72.65 2.07,-1.29 4.13,-2.69 6.2,-4.03 l -4.28,-6.8 c -17.27,-27.42 -31.72,-40.06 -66.664,-46.01 -8.946,-1.53 -45.547,-10.15 -54.883,-12.98 -69.023,-20.92 -75.195,-76.17 -75.586,-84.97 -5.156,1.4 -42.051,47.08 -18.711,91.81 z M 1066.5,1098.7 c 17.08,16.93 30.37,40.75 35.49,76.49 55.37,-45.71 104.88,-105.13 137.52,-172.06 l -1.31,-0.69 c -28.65,-15.12 -56.38,-15.948 -89.63,-3.643 -8.49,3.153 -44.51,14.023 -54.02,16.213 -66.01,15.27 -102.499,-22.444 -108.007,-35.932 -3.77,3.899 -9.746,59.892 32.847,86.962 6.45,4.09 13.75,8.03 21.2,12.66 8.2,5.1 17.28,11.44 25.91,20 z m 194.07,-92.27 c -44.57,94.52 -121.23,174.64 -202.15,225.38 -170.354,110.01 -415.647,110.82 -587.639,-5.84 C 274.281,1096.1 185.566,865.652 238.852,639.859 281.309,447.199 448.141,281.809 638.711,238.75 840,192.059 1054.65,253.852 1194.26,426.551 c 135.21,162.254 153.79,401.59 66.31,579.879 z m 185.37,-355.133 -6.43,1.258 c -1.25,0 -2.4,-0.938 -2.69,-2.188 l -0.82,-4.031 c -0.37,-1.777 -1.92,-3.106 -4.48,-3.106 -0.09,0 -0.19,0 -0.31,0 l -58.38,12.715 c -1.03,0.196 -1.93,0.821 -2.54,1.727 -0.62,0.91 -0.82,2.004 -0.58,3.047 l 0.74,3.554 c 0.16,0.715 0,1.457 -0.39,2.071 -0.43,0.617 -1.04,1.047 -1.76,1.203 l -6.41,1.289 c -1.3,0 -2.44,-0.918 -2.69,-2.188 l -12.87,-61.386 c -0.31,-1.496 0.66,-3.106 2.13,-3.496 l 20.78,-5.586 c 1.21,0 2.21,0.84 2.48,2.031 l 1.66,7.832 c 0.29,1.512 -0.67,3.164 -2.15,3.672 l -7.66,2.519 c -2.09,0.692 -3.41,3.008 -2.94,5.137 l 3.94,18.906 c 0.37,1.778 1.91,3.106 4.47,3.106 0.12,0 0.2,0 0.32,0 l 20.44,-4.414 c 2.19,-0.489 3.58,-2.637 3.13,-4.785 l -4.02,-19.239 c -0.16,-0.722 0,-1.465 0.39,-2.082 0.41,-0.613 1.03,-1.043 1.74,-1.191 l 6.42,-1.297 c 1.29,0 2.42,0.926 2.72,2.188 l 3.98,19.082 c 0.35,1.796 1.88,3.105 4.47,3.105 0.1,0 0.2,0 0.32,0 l 18.82,-4.035 c 2.15,-0.496 3.56,-2.637 3.11,-4.805 l -3.99,-18.855 c -0.37,-1.934 -2.2,-3.438 -4.68,-3.438 -0.02,0 -0.04,0 -0.06,0 l -6.66,0.762 c -1.39,0 -2.74,-1.074 -3.05,-2.441 l -1.39,-6.653 c -0.13,-0.711 0,-1.433 0.41,-2.039 0.42,-0.598 1.02,-1.008 1.76,-1.125 l 18.79,-3.301 0.47,-0.047 c 1.37,0 2.58,0.977 2.83,2.286 l 12.78,60.937 c 0.13,0.715 0.02,1.465 -0.38,2.07 -0.41,0.633 -1.05,1.075 -1.77,1.231 z m -1136.647,611.013 0.184,0.13 h 0.226 c 0.145,0 0.453,0 3.387,-1.63 l 25.68,-14.24 c 0.96,-0.53 1.566,-1.34 1.675,-2.3 0.129,-0.96 -0.273,-1.94 -1.066,-2.68 l -12.695,-11.78 c -0.664,-0.61 -1.403,-0.95 -2.172,-0.95 -1.145,0 -2.141,0.74 -2.657,1.99 l -11.566,27.48 c -1.512,3.59 -1.418,3.65 -0.996,3.98 z m 12.715,-72.74 c 0.758,-1.94 0.094,-4.72 -1.438,-6.16 l -1.804,-1.68 c -1.106,-1.04 -1.184,-2.81 -0.149,-3.91 l 4.055,-4.37 c 0.531,-0.57 1.269,-0.88 2.039,-0.88 0.703,0 1.387,0.25 1.883,0.72 l 22.219,20.64 c 1.105,1.06 1.175,2.8 0.148,3.93 l -4.055,4.37 c -0.535,0.57 -1.269,0.88 -2.047,0.88 -0.703,0 -1.379,-0.26 -1.879,-0.74 l -1.765,-1.63 c -0.664,-0.63 -1.418,-0.95 -2.195,-0.95 -1.141,0 -2.137,0.75 -2.668,1.98 l -4.372,11.09 c -0.824,1.95 -0.234,4.73 1.313,6.13 l 18.125,17.76 c 0.926,0.86 2.32,1.34 3.742,1.34 0.903,0 1.774,-0.19 2.485,-0.59 l 10.593,-6.11 c 0.957,-0.54 1.571,-1.38 1.676,-2.32 0.113,-0.94 -0.277,-1.91 -1.066,-2.65 l -1.789,-1.68 c -0.532,-0.51 -0.848,-1.2 -0.883,-1.94 -0.016,-0.72 0.242,-1.42 0.734,-1.97 l 4.055,-4.36 c 0.539,-0.58 1.254,-0.88 2.027,-0.88 0.703,0 1.363,0.27 1.879,0.73 l 23.817,22.13 c 1.109,1.05 1.183,2.8 0.152,3.92 l -4.051,4.38 c -0.539,0.55 -1.25,0.88 -2.027,0.88 -0.703,0 -1.383,-0.26 -1.879,-0.73 l -1.789,-1.67 c -0.977,-0.91 -2.449,-1.44 -3.957,-1.44 -0.832,0 -1.645,0.16 -2.309,0.5 l -70.89,34.69 c -0.497,0.23 -1.086,0.36 -1.75,0.36 -1.157,0 -2.336,-0.41 -3.055,-1.08 l -9.934,-9.23 c -1.176,-1.07 -1.715,-3.26 -1.14,-4.78 z M 141.223,636.578 c -0.504,-0.605 -1.223,-0.945 -2.586,-0.945 -0.106,0 -0.199,0 -0.313,0 l -29.41,4.844 c -3.781,0.574 -3.82,0.761 -3.914,1.191 -0.094,0.488 -0.113,0.613 3.27,2.5 l 25.695,14.16 c 0.551,0.313 1.129,0.457 1.683,0.457 1.454,0 2.582,-1.023 2.903,-2.613 l 3.226,-16.984 c 0.188,-1.016 -0.019,-1.934 -0.554,-2.61 z m 36.613,-27.293 0.441,-2.383 c 0.243,-1.308 1.375,-2.257 2.715,-2.257 l 0.516,0.05 5.851,1.121 c 0.723,0.129 1.352,0.539 1.778,1.133 0.41,0.617 0.574,1.379 0.433,2.121 l -5.668,29.793 c -0.242,1.242 -1.336,2.168 -3.078,2.168 -0.043,0 -0.094,0 -0.148,0 l -5.871,-1.109 c -1.5,-0.277 -2.504,-1.75 -2.207,-3.234 l 0.465,-2.391 c 0.183,-1.008 -0.016,-1.926 -0.579,-2.59 -0.48,-0.605 -1.191,-0.937 -2.578,-0.937 -0.093,0 -0.203,0 -0.316,0 l -11.715,2.168 c -2.137,0.371 -4.105,2.324 -4.492,4.421 l -5.387,24.77 c -0.402,2.117 0.766,4.605 2.68,5.66 l 10.804,5.734 c 0.536,0.301 1.094,0.45 1.649,0.45 1.445,0 2.578,-1.028 2.894,-2.578 l 0.465,-2.422 c 0.242,-1.25 1.321,-2.188 3.086,-2.188 0.035,0 0.09,0 0.145,0 l 5.832,1.094 c 1.519,0.293 2.484,1.726 2.207,3.254 l -6.086,31.953 c -0.246,1.258 -1.34,2.195 -3.082,2.195 -0.039,0 -0.094,0 -0.152,0 l -5.848,-1.125 c -0.727,-0.125 -1.356,-0.554 -1.762,-1.16 -0.406,-0.625 -0.574,-1.348 -0.43,-2.07 l 0.465,-2.414 c 0.391,-2.117 -0.742,-4.657 -2.562,-5.77 L 91.2461,651.18 c -1.3594,-0.84 -2.2656,-2.903 -1.9688,-4.485 l 2.5391,-13.308 c 0.2813,-1.582 1.8594,-3.164 3.4531,-3.489 l 78.0855,-16.062 c 2.083,-0.43 4.047,-2.414 4.481,-4.551 z m 45.824,-89.726 c -0.445,1 -1.449,1.64 -2.547,1.64 -0.375,0 -0.746,-0.078 -1.097,-0.238 l -5.45,-2.43 c -1.398,-0.609 -2.031,-2.25 -1.437,-3.64 l 1.676,-3.719 c 0.894,-2.063 -0.02,-4.391 -2.078,-5.32 l -21.622,-9.442 c -0.503,-0.219 -0.968,-0.351 -1.398,-0.351 -0.574,0 -1.059,0.25 -1.355,0.652 -0.282,0.398 -0.524,1.109 -0.075,2.34 l 12.59,35.039 c 0.563,1.519 1.399,1.769 1.844,1.769 0.43,0 1.25,-0.23 1.844,-1.629 l 0.59,-1.308 c 0.464,-1.012 1.476,-1.641 2.55,-1.641 0.391,0 0.766,0.078 1.118,0.231 l 5.457,2.386 c 1.371,0.641 2.003,2.282 1.429,3.653 l -13.195,29.742 c -0.441,0.984 -1.449,1.641 -2.547,1.641 -0.367,0 -0.742,-0.079 -1.094,-0.223 l -5.468,-2.414 c -0.668,-0.305 -1.192,-0.84 -1.454,-1.535 -0.281,-0.684 -0.261,-1.453 0.036,-2.137 l 0.578,-1.301 c 0.82,-1.824 0.925,-4.851 0.238,-6.785 l -14.879,-41.09 c -0.559,-1.519 -1.957,-2.519 -3.574,-2.519 -0.524,0 -1.039,0.109 -1.547,0.332 l -36.742,16.269 c -1.895,0.828 -4.016,2.949 -4.797,4.789 l -0.574,1.282 c -0.469,1.007 -1.477,1.66 -2.571,1.66 -0.371,0 -0.746,-0.082 -1.097,-0.223 l -5.469,-2.418 c -0.668,-0.301 -1.176,-0.84 -1.438,-1.512 -0.277,-0.699 -0.257,-1.468 0.024,-2.14 l 12.629,-28.489 c 0.449,-1.019 1.437,-1.66 2.535,-1.66 0.391,0 0.781,0.09 1.133,0.231 l 5.429,2.398 c 0.696,0.321 1.211,0.86 1.489,1.571 0.261,0.679 0.246,1.429 -0.055,2.089 l -1.394,3.18 c -0.54,1.18 -0.356,1.891 -0.114,2.262 l 0.969,0.648 h 0.355 c 0.391,0 0.856,-0.121 1.375,-0.328 l 35.461,-15.492 c 1.45,-0.649 1.657,-1.508 1.657,-1.938 0,-0.461 -0.227,-1.32 -1.657,-1.91 l -22.027,-9.492 c -0.508,-0.219 -1.039,-0.32 -1.582,-0.32 -1.641,0 -3.105,0.941 -3.738,2.41 l -1.477,3.262 c -0.437,1.007 -1.429,1.66 -2.523,1.66 -0.391,0 -0.766,-0.102 -1.117,-0.242 l -5.457,-2.399 c -0.665,-0.301 -1.184,-0.851 -1.45,-1.531 -0.273,-0.688 -0.257,-1.449 0.043,-2.117 l 13.297,-30.024 c 0.43,-0.968 1.418,-1.629 2.516,-1.629 0.39,0 0.781,0.102 1.133,0.25 l 5.468,2.403 c 1.375,0.629 2.012,2.238 1.414,3.617 l -1.671,3.781 c -0.446,1 -0.465,2.102 -0.075,3.11 0.391,0.98 1.133,1.769 2.118,2.179 l 54.812,23.832 c 0.52,0.219 1.059,0.328 1.613,0.328 1.645,0 3.094,-0.949 3.723,-2.418 l 1.477,-3.3 c 0.441,-1 1.429,-1.641 2.546,-1.641 0.387,0 0.758,0.059 1.114,0.211 l 5.433,2.43 c 1.41,0.621 2.043,2.257 1.434,3.66 z m 667.199,837.481 28.887,-8.24 c 1.231,0 2.344,0.81 2.695,1.99 l 1.641,5.74 c 0.215,0.68 0.137,1.41 -0.234,2.06 -0.352,0.66 -0.957,1.16 -1.641,1.36 l -3.965,1.13 c -1.035,0.3 -1.875,0.98 -2.402,1.93 -0.527,0.94 -0.625,2.04 -0.332,3.07 l 13.183,44.06 c 0.977,3.42 1.211,3.65 1.758,3.65 0.02,0 0.059,0 0.098,0 0.391,-0.1 0.488,-0.11 1.855,-3.63 l 26.7,-70.27 c 0.566,-1.58 2.461,-3.29 4.082,-3.73 l 6.66,-1.95 c 0.273,-0.07 0.527,-0.12 0.781,-0.12 1.25,0 2.344,0.84 2.715,2.03 l 20.527,69.55 c 0.528,1.7 2.129,2.89 3.906,2.89 0.391,0 0.782,-0.05 1.133,-0.15 l 4.234,-1.11 c 1.22,0 2.31,0.81 2.64,2 l 1.66,5.75 c 0.2,0.69 0.12,1.4 -0.23,2.06 -0.35,0.65 -0.94,1.14 -1.68,1.34 l -28.909,8.24 c -1.23,0 -2.324,-0.8 -2.676,-2.01 l -1.66,-5.71 c -0.41,-1.46 0.449,-3 1.895,-3.45 l 3.984,-1.12 c 1.016,-0.29 1.856,-0.98 2.383,-1.93 0.527,-0.94 0.625,-2.02 0.351,-3.07 l -12.304,-40.98 c -0.977,-3.17 -1.192,-3.61 -1.758,-3.61 -0.098,0 -0.215,0 -0.332,0.03 -0.156,0.1 -0.371,0.23 -1.602,3.55 l -25.195,66.51 c -0.625,1.56 -2.48,3.27 -4.082,3.74 l -20.371,5.76 c -1.231,0 -2.324,-0.82 -2.656,-1.99 l -1.641,-5.74 c -0.215,-0.69 -0.137,-1.44 0.215,-2.09 0.351,-0.65 0.957,-1.13 1.641,-1.33 l 3.964,-1.13 c 1.016,-0.3 1.895,-0.98 2.403,-1.94 0.527,-0.95 0.644,-2.03 0.332,-3.08 L 902.5,1369.81 c -0.508,-1.68 -2.109,-2.89 -3.906,-2.89 -0.371,0 -0.762,0.06 -1.133,0.16 l -4.199,1.1 c -1.231,0 -2.344,-0.82 -2.696,-1.98 l -1.621,-5.76 c -0.215,-0.71 -0.117,-1.43 0.235,-2.09 0.351,-0.65 0.937,-1.12 1.679,-1.31 z m 462.731,-251.6 c 0.59,0.31 1.27,0.49 1.94,0.49 1.48,0 2.85,-0.8 3.55,-2.07 0.14,-0.2 3.48,-5.49 4.22,-10.2 0.02,-0.1 2.54,-9.51 -6.33,-14.86 -1.66,-1.02 -3.47,-1.53 -5.39,-1.53 -6.95,0 -12.91,6.72 -13.12,6.96 -1.43,1.32 -3.36,3.79 -4.48,5.79 -0.52,0.94 -0.64,2.06 -0.35,3.07 0.3,1.05 0.98,1.88 1.94,2.41 z m -6.73,20.37 c 0.5,-0.96 0.64,-2.06 0.35,-3.09 -0.32,-1.05 -0.98,-1.89 -1.94,-2.41 l -52.38,-28.73 c -0.6,-0.33 -1.27,-0.51 -1.93,-0.51 -1.51,0 -2.87,0.81 -3.58,2.07 l -1.77,3.18 c -0.49,0.88 -1.41,1.4 -2.41,1.4 -0.47,0 -0.93,-0.11 -1.32,-0.34 l -5.24,-2.9 c -1.31,-0.76 -1.8,-2.45 -1.05,-3.78 l 15.99,-28.63 c 0.49,-0.88 1.41,-1.43 2.4,-1.43 0.49,0 0.94,0.11 1.35,0.36 l 5.22,2.89 c 1.33,0.75 1.81,2.43 1.07,3.75 l -1.99,3.57 c -0.55,0.97 -0.65,2.07 -0.35,3.13 0.31,1.02 0.99,1.86 1.91,2.37 l 17.15,9.42 c 0.92,0.5 1.89,0.78 2.73,0.78 0.98,0 1.7,-0.36 2.02,-0.98 0.5,-0.9 1.48,-3.09 2.18,-4.85 0.08,-0.21 2,-5.52 -8.81,-21.57 -11.75,-17.35 -7.94,-27.01 -7.89,-27.12 0.69,-1.71 2.02,-4.39 2.93,-6.05 l 1.27,-2.24 c 0.49,-0.88 1.43,-1.43 2.43,-1.43 0.46,0 0.91,0.13 1.32,0.35 l 5.78,3.24 c 1.37,0.7 2.15,1.16 -0.37,6.51 -0.95,2.08 0.51,4.69 2.76,8.64 1.58,2.8 3.55,6.29 5.29,10.69 1.6,4 3.65,10.6 4.43,19.19 l 0.12,1.08 h 0.57 c 0.25,0 0.47,0 3.08,-2.41 0.04,-0.03 3.28,-3.04 6.02,-4.62 3.69,-2.17 7.48,-3.26 11.25,-3.26 3.77,0 7.58,1.09 11.33,3.26 12.69,7.25 14.8,22.02 5.49,38.52 l -17.41,31.11 c -0.47,0.89 -1.4,1.43 -2.42,1.43 -0.47,0 -0.92,-0.12 -1.33,-0.35 l -5.19,-2.92 c -0.67,-0.35 -1.12,-0.93 -1.31,-1.63 -0.22,-0.72 -0.12,-1.45 0.25,-2.11 z m -81.2,105.61 c 0.71,-0.82 1.04,-1.84 0.96,-2.93 -0.08,-1.08 -0.55,-2.07 -1.39,-2.76 l -45.25,-39 c -0.72,-0.63 -1.66,-0.98 -2.66,-0.98 -1.17,0 -2.28,0.51 -3.08,1.38 l -2.36,2.72 c -0.53,0.6 -1.27,0.95 -2.11,0.95 -0.65,0 -1.29,-0.24 -1.78,-0.69 l -4.51,-3.93 c -0.55,-0.47 -0.88,-1.13 -0.92,-1.88 -0.06,-0.74 0.17,-1.46 0.68,-2 l 41.29,-47.21 c 0.53,-0.62 1.35,-0.97 2.23,-0.97 0.66,0 1.29,0.2 1.79,0.59 l 16.47,12.7 c 0.61,0.47 0.96,1.1 1.03,1.82 0.04,0.71 -0.17,1.38 -0.66,1.92 l -5.25,5.99 c -0.59,0.66 -1.51,1.06 -2.43,1.06 -0.66,0 -1.26,-0.18 -1.77,-0.53 l -6.64,-4.58 c -0.71,-0.5 -1.59,-0.79 -2.5,-0.79 -1.33,0 -2.56,0.56 -3.4,1.49 l -12.72,14.58 c -0.7,0.8 -1.05,1.85 -0.97,2.93 0.08,1.07 0.56,2.04 1.38,2.74 l 15.84,13.68 c 0.73,0.64 1.68,1 2.64,1 1.19,0 2.31,-0.51 3.07,-1.39 l 12.97,-14.8 c 0.5,-0.6 1.27,-0.96 2.07,-0.96 0.66,0 1.32,0.23 1.79,0.69 l 4.51,3.94 c 0.55,0.48 0.86,1.15 0.92,1.89 0.06,0.73 -0.19,1.45 -0.66,1.98 l -12.85,14.7 c -0.71,0.82 -1.08,1.91 -0.98,2.98 0.1,1.07 0.61,2.02 1.41,2.69 l 14.57,12.58 c 0.72,0.65 1.66,1 2.63,1 1.18,0 2.31,-0.5 3.07,-1.36 l 12.68,-14.51 c 1.44,-1.68 1.36,-4.27 -0.12,-5.9 l -4.44,-4.57 c -1.05,-1.13 -1.09,-3 -0.05,-4.2 l 4.45,-5.09 c 0.49,-0.59 1.25,-0.92 2.01,-0.92 0.67,0 1.29,0.26 1.82,0.72 l 13.98,13.04 c 1.1,1.04 1.17,2.83 0.18,3.99 l -41.04,46.88 c -0.49,0.58 -1.25,0.92 -2.05,0.92 -0.66,0 -1.31,-0.24 -1.83,-0.69 l -4.48,-3.9 c -0.56,-0.49 -0.9,-1.16 -0.93,-1.92 -0.06,-0.72 0.17,-1.42 0.68,-1.99 z m 110.16,-265.123 c 0.82,-11.192 1.58,-21.738 -7.66,-24.609 -1.4,-0.43 -2.77,-0.665 -4.1,-0.665 -6.58,0 -12.05,5.457 -15,14.961 -1.42,4.668 -1.95,13.145 -1.97,13.477 -0.16,2.168 1.31,4.473 3.36,5.223 l 5.23,1.933 c 1.45,0.539 2.29,2.18 1.84,3.664 l -2.29,7.305 c -0.31,1.055 -1.28,1.836 -3.04,1.836 -0.14,0 -0.26,0 -0.41,-0.02 l -16.08,-4.98 c -1.5,-0.449 -2.71,-2.18 -2.65,-3.781 0,-0.157 0.64,-17.118 3.41,-26.102 8.07,-26.211 22.9,-30.148 31.02,-30.148 2.75,0 5.55,0.441 8.26,1.281 18.46,5.703 17.31,21.941 16.31,36.289 -0.78,10.84 -1.5,21.055 7.27,23.769 1.21,0.379 2.42,0.555 3.59,0.555 6.07,0 11.11,-5.074 13.87,-13.953 1.09,-3.547 1.5,-9.504 1.52,-9.766 0.16,-2.109 -1.37,-4.472 -3.36,-5.234 l -4,-1.504 c -1.47,-0.547 -2.29,-2.187 -1.8,-3.672 l 2.25,-7.304 c 0.33,-1.055 1.27,-1.829 3.02,-1.829 0.14,0 0.28,0 0.41,0.024 l 14.22,4.391 c 1.55,0.46 2.78,2.16 2.74,3.773 0,0.164 -0.57,16.797 -2.66,23.543 -5.51,17.851 -16.39,28.086 -29.8,28.086 -2.74,0 -5.51,-0.43 -8.25,-1.29 -17.42,-5.39 -16.25,-21.257 -15.25,-35.253 z m -245.19,281.113 9.49,-7.42 c 0.68,-0.53 1.74,-0.86 2.81,-0.86 0.8,0 1.54,0.17 2.09,0.49 l 68.81,38.86 c 0.78,0.43 1.74,0.66 2.75,0.66 1.39,0 2.68,-0.4 3.62,-1.13 l 1.52,-1.19 c 0.47,-0.4 1.07,-0.58 1.68,-0.58 0.86,0 1.66,0.37 2.21,1.03 l 3.67,4.7 c 0.47,0.6 0.66,1.32 0.56,2.07 -0.07,0.72 -0.46,1.38 -1.03,1.83 l -24.51,19.22 c -0.51,0.39 -1.1,0.58 -1.72,0.58 -0.86,0 -1.66,-0.37 -2.19,-1.04 l -3.65,-4.7 c -0.47,-0.58 -0.69,-1.3 -0.59,-2.03 0.08,-0.72 0.45,-1.39 1.04,-1.84 l 3.36,-2.65 c 0.9,-0.69 1.34,-1.6 1.31,-2.54 -0.06,-0.96 -0.63,-1.82 -1.59,-2.44 l -50.5,-31.66 c -2.47,-1.54 -3.03,-1.76 -3.42,-1.76 -0.08,0 -0.14,0.03 -0.22,0.03 -0.49,0.24 -0.68,0.34 0.59,4.11 l 18.59,56.73 c 0.45,1.33 1.49,2.19 2.72,2.19 0.68,0 1.4,-0.25 2.03,-0.76 l 1.91,-1.5 c 0.51,-0.39 1.1,-0.59 1.72,-0.59 0.86,0 1.66,0.37 2.19,1.06 l 3.67,4.68 c 0.94,1.2 0.72,2.95 -0.47,3.9 l -25.56,20.07 c -0.53,0.39 -1.1,0.58 -1.72,0.58 -0.86,0 -1.66,-0.38 -2.19,-1.05 l -3.67,-4.71 c -0.96,-1.22 -0.74,-2.95 0.45,-3.88 l 1.91,-1.51 c 1.68,-1.31 2.56,-3.96 1.99,-6.05 l -21.17,-76.22 c -0.45,-1.54 0.24,-3.66 1.51,-4.68 z m 240.41,-378.867 -0.51,3.574 c -0.2,1.348 -1.33,2.352 -3.03,2.352 -0.06,0 -0.06,0 -0.1,0 l -5.92,-0.86 c -1.5,-0.195 -2.57,-1.601 -2.34,-3.113 l 4.69,-32.519 c 0.17,-1.36 1.38,-2.364 2.79,-2.364 l 0.35,0.008 5.9,0.871 c 1.51,0.223 2.54,1.621 2.33,3.113 l -0.59,4.055 c -0.14,1.074 0.12,2.129 0.76,3.008 0.67,0.859 1.6,1.406 2.66,1.551 l 59.76,8.117 c 2.01,0 3.75,-1.516 4.05,-3.516 l 0.48,-3.574 c 0.2,-1.328 1.33,-2.336 3.07,-2.336 0.02,0 0.04,0 0.08,0 l 5.92,0.86 c 0.72,0.097 1.34,0.46 1.77,1.027 0.47,0.605 0.67,1.348 0.55,2.07 l -4.67,32.539 c -0.19,1.348 -1.33,2.364 -3,2.364 -0.04,0 -0.06,0 -0.1,0 l -5.92,-0.86 c -0.74,-0.097 -1.39,-0.488 -1.84,-1.086 -0.43,-0.594 -0.6,-1.316 -0.5,-2.039 l 0.58,-4.082 c 0.16,-1.055 -0.12,-2.129 -0.78,-3.008 -0.64,-0.859 -1.58,-1.406 -2.64,-1.543 l -59.76,-8.086 c -2.01,0 -3.75,1.504 -4.04,3.477 z m -950.474,482.387 6.879,3.94 c 1.664,0.98 4.469,2.3 6.223,2.95 0.348,0.14 8.41,3.23 15.234,3.23 1.661,0 3.118,-0.17 4.356,-0.54 6.972,-2.08 12.101,-5.46 19.097,-17.37 7.485,-12.72 7.004,-24.88 4.309,-31.43 -2.988,-7.33 -11.84,-12.78 -12.117,-12.93 -1.277,-1.15 -10.207,-6.68 -10.606,-6.92 -0.613,-0.35 -1.312,-0.54 -2.011,-0.54 -1.442,0 -2.785,0.78 -3.489,2.06 l -29.402,52.01 c -1.09,1.93 -0.387,4.43 1.527,5.54 z m -29.144,-13.56 c 0.496,-0.88 1.437,-1.41 2.433,-1.41 0.481,0 0.942,0.13 1.364,0.38 l 3.558,2.07 c 0.614,0.34 1.289,0.51 1.981,0.51 1.453,0 2.801,-0.77 3.519,-2.04 l 29.411,-52.03 c 1.085,-1.91 0.398,-4.39 -1.54,-5.51 l -3.128,-1.8 c -1.309,-0.77 -1.774,-2.47 -1.016,-3.78 l 2.988,-5.19 c 0.477,-0.84 1.403,-1.37 2.399,-1.37 0.476,0 0.957,0.13 1.382,0.37 l 31.512,18.12 c 1.602,0.93 4.164,2.57 5.656,3.65 0.133,0.08 12.473,8.98 17.711,17.09 3.121,4.85 12.305,22.43 -1.035,45.66 -9.363,16.32 -20.512,24.23 -34.066,24.23 -5.559,0 -11.699,-1.35 -18.227,-4.04 -5.797,-2.37 -10.129,-4.88 -11.828,-5.86 l -35.016,-20.1 c -1.304,-0.77 -1.765,-2.46 -1.011,-3.8 z m 166.019,37.15 c 3.606,0 7.266,0.29 11.18,0.62 3.481,0.31 6.84,0.6 9.91,0.6 5.688,0 12.504,-0.91 14.793,-7.93 1.481,-4.6 0.684,-8.72 -2.383,-12.29 -2.527,-2.93 -6.562,-5.35 -11.66,-7 -4.652,-1.5 -13.113,-2.14 -13.816,-2.18 -2.031,0 -4.195,1.46 -4.899,3.34 l -1.992,5.2 c -0.41,1.05 -1.386,1.78 -3.179,1.78 -0.153,0 -0.317,0 -0.5,-0.02 l -7.278,-2.35 c -0.703,-0.22 -1.273,-0.73 -1.605,-1.37 -0.352,-0.67 -0.407,-1.41 -0.172,-2.11 l 5.156,-16 c 0.465,-1.46 2.129,-2.65 3.695,-2.65 h 0.11 c 0.183,0.02 17.133,0.86 26.094,3.77 13.335,4.29 22.332,10.69 26.75,19 4.488,8.44 2.937,16.56 1.601,20.64 -4.703,14.59 -16.086,16.47 -25.492,16.47 -3.551,0 -7.129,-0.29 -11.012,-0.61 -3.363,-0.29 -6.609,-0.56 -9.566,-0.56 -5.524,0 -12.121,0.86 -14.266,7.52 -2.461,7.59 2.473,14.16 13.176,17.65 3.543,1.1 9.477,1.59 10.066,1.64 2.071,0 4.196,-1.42 4.934,-3.3 l 1.57,-4.02 c 0.407,-1.02 1.407,-1.76 3.176,-1.76 0.172,0 0.336,0 0.504,0.02 l 7.258,2.35 c 0.719,0.23 1.289,0.73 1.64,1.39 0.336,0.65 0.391,1.38 0.172,2.06 l -4.586,14.16 c -0.465,1.49 -2.125,2.68 -3.808,2.68 -0.164,-0.02 -16.785,-0.75 -23.5,-2.91 -11.266,-3.65 -19.567,-9.44 -24,-16.7 -3.969,-6.58 -4.785,-14.06 -2.309,-21.68 4.399,-13.69 15.266,-15.45 24.238,-15.45 z m 498.519,-79.43 c 0.39,-0.2 0.8,-0.33 1.25,-0.33 1.03,0 1.99,0.58 2.46,1.54 l 2.69,5.29 c 0.71,1.37 0.18,3.04 -1.17,3.72 l -3.67,1.89 c -0.96,0.5 -1.66,1.32 -2.01,2.38 -0.31,1.02 -0.22,2.11 0.27,3.06 l 27.66,52.96 c 0.68,1.35 2.05,2.18 3.59,2.18 0.65,0 1.27,-0.14 1.86,-0.42 l 3.2,-1.63 c 0.39,-0.21 0.82,-0.31 1.27,-0.31 1.03,0 1.97,0.56 2.44,1.5 l 2.74,5.31 c 0.33,0.65 0.39,1.39 0.13,2.11 -0.21,0.71 -0.7,1.27 -1.35,1.59 l -29.23,14.98 c -0.39,0.2 -0.8,0.31 -1.25,0.31 -1.06,0 -2.02,-0.57 -2.46,-1.52 l -2.74,-5.3 c -0.68,-1.38 -0.16,-3.04 1.19,-3.73 l 3.67,-1.85 c 0.96,-0.51 1.68,-1.37 2.02,-2.41 0.31,-1.01 0.21,-2.11 -0.3,-3.04 l -27.59,-52.99 c -0.73,-1.34 -2.11,-2.17 -3.64,-2.17 -0.64,0 -1.29,0.15 -1.83,0.43 l -3.23,1.63 c -0.39,0.21 -0.82,0.32 -1.27,0.32 -1.03,0 -1.99,-0.58 -2.46,-1.52 l -2.71,-5.27 c -0.69,-1.37 -0.14,-3.05 1.21,-3.75 z m -303.304,152.38 4.782,-0.19 c 1.117,-0.05 2.117,-0.49 2.839,-1.32 0.703,-0.8 1.055,-1.81 0.985,-2.87 0,0 -1.489,-28.8 -2.039,-43.92 -0.43,-11.9 2.375,-20.38 8.613,-25.97 5.801,-5.24 14.785,-8.03 27.512,-8.54 1.55,-0.06 3.132,-0.1 4.746,-0.1 15.238,0 31.273,4.12 34.34,34.59 l 1.914,41.21 c 0.117,2.18 1.914,3.89 4.218,3.89 l 2.891,-0.12 c 1.484,0 2.695,1.21 2.773,2.67 l 0.215,5.96 c 0.02,0.75 -0.254,1.44 -0.742,1.98 -0.527,0.55 -1.211,0.86 -1.933,0.9 l -31.25,1.15 c -1.485,0 -2.715,-1.2 -2.793,-2.67 l -0.235,-5.97 c -0.039,-1.52 1.153,-2.79 2.676,-2.87 l 4.805,-0.19 c 1.054,-0.02 2.05,-0.47 2.773,-1.27 0.742,-0.77 1.133,-1.8 1.074,-2.89 l -1.816,-38.11 c -2.734,-18.94 -7.52,-24.72 -20.465,-24.72 l -1.816,0.05 c -14.258,0.53 -20.938,8.19 -20.379,23.38 0.554,14.47 1.961,40.98 1.961,40.98 0.097,2.13 1.953,3.87 4.258,3.87 l 2.89,-0.12 c 1.504,0 2.695,1.19 2.774,2.66 l 0.195,5.98 c 0.019,0.74 -0.234,1.42 -0.731,1.98 -0.5,0.53 -1.183,0.83 -1.906,0.87 l -32.812,1.21 c -1.485,0 -2.703,-1.2 -2.778,-2.66 l -0.23,-5.96 c -0.031,-1.54 1.172,-2.82 2.691,-2.87 z M 1350.2,296.781 C 1158.14,60.9414 863.516,-21.6484 592.898,41.1016 327.242,101.488 100.344,326.238 40.9609,595.809 -30.332,902.535 91.1563,1218.02 358.871,1394.95 c 240.285,162.1 572.613,160.14 809.159,7.39 109.86,-69.29 213.65,-177.21 275.93,-309.44 118.91,-244.935 95.1,-569.548 -93.76,-796.119 z m 112.69,804.979 c -64.16,136.17 -170.68,246.89 -283.46,318.08 -243.453,157.2 -584.617,159.33 -832.094,-7.48 C 72.3711,1230.63 -52.5234,906.383 20.5352,591.434 81.7266,313.762 314.719,83 588.258,20.75 c 277.523,-64.3398 580.412,20.2891 777.912,262.641 194.51,233.308 218.79,566.578 96.72,818.369" />
        <path
           inkscape:connector-curvature="0"
           id="path850"
           style="fill:#fcd006;fill-opacity:1;fill-rule:nonzero;stroke:none"
           d="m 957.703,529.5 c -10.43,-7.27 -46.133,-31.512 -66.758,-39.691 13.032,-9.02 35.332,-33.129 37.485,-84.039 0.347,-7.719 0.093,-16.059 0.371,-24.899 0.308,-8.711 1.133,-17.769 3.594,-27.09 4.316,-16.383 13.668,-33.89 34.453,-51.679 -12.91,34.519 -3.735,63.828 6.875,92.808 5.781,15.809 12.09,31.719 15.664,48.699 3.511,16.762 4.297,34.45 -0.782,54.082 -4.179,16.098 -19.203,31.637 -30.902,31.809 z m -381.504,475.76 c 11.754,8.19 49.66,34.01 70.395,42.41 -13.02,9 -35.344,33.12 -37.524,84.06 -0.316,7.72 -0.066,16.07 -0.371,24.9 -0.285,8.71 -1.121,17.77 -3.582,27.09 -4.304,16.42 -13.711,33.93 -34.531,51.76 12.727,-34.88 1.898,-65.57 -9.141,-95.39 -3.031,-8.16 -6.109,-16.36 -8.777,-24.62 -2.625,-8.17 -4.875,-16.45 -6.242,-24.89 -2.742,-16.73 -2.067,-34.06 5.539,-52.76 5.402,-13.28 15.832,-26.48 24.234,-32.56 z m 427.051,83.29 c 6.53,4.12 13.89,8.08 21.39,12.75 7.38,4.61 14.8,9.86 21.66,16.65 12.07,11.96 22.56,28.86 27.56,55.83 -23.95,-28.4 -56.49,-30.8 -88.364,-35.62 -8.711,-1.33 -17.5,-2.61 -26.109,-4.3 -8.535,-1.69 -16.914,-3.76 -25.039,-6.68 -16.055,-5.8 -30.864,-14.9 -43.227,-30.82 -8.633,-11.12 -13.785,-33.27 -14.004,-42.5 12.793,-6.02 54.375,-26.06 72.094,-39.84 1.285,15.76 10.992,47.18 54.039,74.53 z M 499.684,551.957 c 13.886,5.652 28.441,15.047 32.793,23.906 -7.946,11.387 -34.164,49.813 -42.637,70.711 -8.981,-13.027 -33.102,-35.351 -84.059,-37.508 -7.715,-0.324 -16.062,-0.078 -24.898,-0.371 -8.695,-0.304 -17.762,-1.144 -27.098,-3.586 -16.402,-4.324 -33.937,-13.711 -51.734,-34.55 34.859,12.734 65.543,1.914 95.359,-9.141 8.195,-3.027 16.367,-6.113 24.633,-8.758 8.191,-2.637 16.453,-4.875 24.891,-6.262 16.734,-2.722 34.062,-2.05 52.75,5.559 z m 534.856,437.344 c -12.93,-5.266 -24.92,-19.328 -29.43,-27.766 8.01,-11.484 34.08,-49.754 42.56,-70.625 8.98,13.039 33.1,35.363 84.06,37.531 7.73,0.321 16.07,0.086 24.88,0.372 8.71,0.3 17.79,1.121 27.11,3.582 16.43,4.308 33.97,13.71 51.8,34.589 -35.06,-12.636 -66.56,-0.906 -97.11,10.977 -8.38,3.262 -16.76,6.594 -25.22,9.473 -8.38,2.851 -16.83,5.285 -25.41,6.836 -17.05,3.078 -34.57,2.636 -53.24,-4.969 z M 342.234,777.434 c 5.387,-6.543 10.746,-13.204 16.371,-19.676 5.606,-6.438 11.438,-12.637 17.821,-18.34 12.746,-11.367 27.683,-20.715 47.304,-25.762 17.547,-4.484 32.114,0.125 43.946,6.453 -1.215,14.161 -4.645,60.098 -1.531,82.297 -14.321,-6.769 -46.356,-14.054 -91.567,9.539 -6.844,3.586 -13.953,7.981 -21.742,12.129 -7.68,4.102 -15.961,7.91 -25.258,10.449 -16.355,4.465 -36.195,5.098 -62.015,-4.003 36.375,-6.141 57.003,-29.18 76.671,-53.086 z m 851.756,-14.805 c -5.54,6.719 -11.11,13.457 -16.93,19.914 -5.8,6.414 -11.84,12.469 -18.42,17.859 -13.12,10.723 -28.47,18.809 -48.45,21.563 -14.22,1.953 -30.61,-0.43 -40.34,-4.707 1.21,-14.305 4.61,-60.02 1.53,-82.168 14.31,6.777 46.34,14.055 91.56,-9.531 6.85,-3.594 13.94,-7.969 21.74,-12.129 7.69,-4.102 15.95,-7.93 25.27,-10.469 16.37,-4.453 36.23,-5.078 62.09,4.043 -36.56,6.426 -57.73,31.133 -78.05,55.625 z M 403.551,986.672 c 3.976,-28.613 7.703,-45.43 10.73,-53.438 6,-15.859 15.25,-30.527 31.192,-42.898 11.347,-8.828 28.492,-12.297 38.25,-13.098 6.047,12.922 26.011,54.317 39.777,71.985 -15.773,1.277 -47.16,11.004 -74.512,54.047 -4.148,6.51 -8.105,13.85 -12.773,21.37 -4.613,7.38 -9.848,14.82 -16.652,21.66 -11.958,12.06 -28.836,22.56 -55.793,27.56 28.457,-23.84 35.402,-55.66 39.781,-87.188 z M 1135.11,552.973 c -1.31,8.836 -2.6,17.722 -4.3,26.472 -1.66,8.653 -3.73,17.141 -6.66,25.332 -5.8,16.243 -14.9,31.153 -30.8,43.516 -11.09,8.633 -28.69,12.227 -39.49,12.121 -5.98,-12.766 -26.04,-54.406 -39.87,-72.121 15.79,-1.309 47.19,-11.016 74.54,-54.063 4.14,-6.519 8.1,-13.871 12.77,-21.371 4.61,-7.379 9.86,-14.82 16.64,-21.679 11.95,-12.051 28.89,-22.532 55.88,-27.532 -28.46,24.024 -33.89,57.032 -38.71,89.325 z m -332.7,518.417 c -6.781,14.29 -14.055,46.34 9.531,91.55 3.579,6.85 7.993,13.95 12.129,21.76 4.106,7.68 7.91,15.94 10.473,25.25 4.449,16.37 5.074,36.25 -4.063,62.11 -6.464,-36.62 -31.617,-57.89 -56.5,-78.28 -6.816,-5.59 -13.671,-11.16 -20.23,-17.02 -6.516,-5.81 -12.676,-11.89 -18.125,-18.49 -10.898,-13.18 -19.082,-28.54 -21.84,-48.51 -1.988,-14.38 1.281,-32.43 6.098,-39.94 13.883,1.2 60.211,4.68 82.527,1.57 z M 735.133,466.07 c 6.762,-14.351 14.004,-46.371 -9.563,-91.511 -3.582,-6.86 -7.972,-13.957 -12.136,-21.75 -4.098,-7.68 -7.911,-15.957 -10.45,-25.258 -4.461,-16.352 -5.089,-36.211 4.02,-62.012 6.219,36.563 32.824,57.332 56.758,78.02 6.566,5.671 13.207,11.3 19.621,17.16 6.379,5.84 12.472,11.871 17.972,18.402 11.016,13.051 19.731,28.078 23.696,47.359 2.91,14.059 -4.321,30.551 -13.34,40.051 -13.219,-1.109 -54.992,-3.73 -76.578,-0.461 z M 989.91,596.918 c 64.77,77.695 76.15,205.691 30.3,295.496 C 999.148,937.531 957.688,981.82 914.348,1008.21 830.93,1062.27 699,1061.29 617.418,1004.13 514,935.785 468.637,817.016 498.551,697.035 518.668,605.766 607.184,517.852 698.637,497.852 809.246,472.211 918.879,506.621 989.91,596.918 Z M 534.242,448.961 c -6.504,-4.141 -13.859,-8.09 -21.355,-12.762 -7.403,-4.629 -14.821,-9.859 -21.688,-16.66 -12.051,-11.937 -22.543,-28.84 -27.551,-55.777 23.836,28.437 55.829,34.418 87.176,39.769 8.59,1.469 17.223,2.891 25.731,4.707 8.383,1.813 16.664,4 24.66,7.043 15.875,5.981 30.543,15.239 42.918,31.168 9.043,11.653 15.07,22.981 16.109,37.262 -12.918,6.07 -54.289,26.027 -71.937,39.777 -1.274,-15.777 -10.996,-47.168 -54.063,-74.527" />
      </g>
    </g>
  </g>
</svg>
